<svg width="60" height="60" viewBox="0 0 60 60" fill="none" xmlns="http://www.w3.org/2000/svg">
<circle cx="30" cy="30" r="25" fill="#718096"/>
<path fill-rule="evenodd" clip-rule="evenodd" d="M22.7436 19.0215C22.5843 19.0721 22.4341 19.2345 22.3387 19.4594C22.2691 19.6235 22.2572 19.9237 22.3156 20.0439C22.3719 20.1599 22.3841 20.1697 22.7576 20.401C22.9336 20.51 23.1615 20.653 23.2641 20.7188C23.3666 20.7846 23.4553 20.8385 23.4612 20.8385C23.467 20.8385 23.5559 20.8927 23.6587 20.9589C23.8926 21.1096 24.2581 21.3355 24.3161 21.3654C24.3402 21.3778 24.4506 21.4446 24.5615 21.5138C24.6723 21.5831 24.8542 21.6949 24.9657 21.7624C25.0772 21.8298 25.2698 21.9473 25.3938 22.0233C25.5179 22.0994 25.626 22.1616 25.6343 22.1616C25.6425 22.1616 25.6865 22.1863 25.732 22.2165C25.8283 22.2804 26.3611 22.588 26.7151 22.7841C27.0087 22.9468 27.2404 23.021 27.4618 23.0233C27.5988 23.0247 27.6402 23.0153 27.7496 22.9577C27.8595 22.8998 27.8859 22.8732 27.938 22.7671C27.9925 22.6562 27.9979 22.6256 27.9916 22.4643C27.9858 22.32 27.9725 22.2608 27.9235 22.1616C27.8247 21.9617 27.7703 21.9125 27.3978 21.6854C27.1072 21.5083 26.4828 21.1239 26.2457 20.9761C26.1343 20.9067 26.0166 20.8347 25.9842 20.8161C25.872 20.7519 25.2743 20.3818 24.9635 20.184C24.8508 20.1123 24.7534 20.0536 24.747 20.0536C24.7406 20.0536 24.6504 19.9998 24.5465 19.934C24.3454 19.8066 24.0169 19.6025 23.6857 19.399C23.5742 19.3306 23.4014 19.2238 23.3016 19.1618C23.054 19.0079 22.9048 18.9703 22.7436 19.0215ZM22.3156 20.6001C22.2724 20.6758 22.1991 20.8105 22.1527 20.8995L22.0682 21.0614L22.2505 21.1686C22.5398 21.3387 22.5752 21.36 22.7938 21.4953C22.9075 21.5658 23.0049 21.6234 23.0102 21.6234C23.0191 21.6234 23.2104 21.7394 23.6991 22.0413C23.8062 22.1075 23.8995 22.1616 23.9064 22.1616C23.9132 22.1616 24.0059 22.2171 24.1123 22.2849C24.2188 22.3528 24.3101 22.4083 24.3152 22.4083C24.3243 22.4083 24.7522 22.6651 24.987 22.8115C25.0516 22.8518 25.1524 22.912 25.211 22.9454C25.2697 22.9788 25.4473 23.0849 25.6057 23.1812C25.911 23.3669 26.276 23.5853 26.551 23.7467C26.6426 23.8005 26.7263 23.8388 26.7371 23.8318C26.7479 23.8248 26.792 23.7514 26.8352 23.6687C26.8784 23.586 26.9468 23.4597 26.9874 23.388C27.0279 23.3164 27.0576 23.2552 27.0534 23.252C27.0345 23.2376 26.6714 23.0225 26.567 22.9638C26.5032 22.9279 26.3639 22.8451 26.2576 22.7798C25.8827 22.5494 25.37 22.2417 25.1957 22.1425C25.1337 22.1072 25.0181 22.0366 24.9386 21.9854C24.8592 21.9343 24.7888 21.8925 24.7821 21.8925C24.7753 21.8925 24.6756 21.8319 24.5603 21.7579C24.4451 21.6839 24.3447 21.6234 24.3373 21.6234C24.3298 21.6234 24.2278 21.5628 24.1106 21.4888C23.9934 21.4148 23.8934 21.3543 23.8885 21.3543C23.8835 21.3543 23.7931 21.3013 23.6876 21.2366C23.4103 21.0664 22.7488 20.6697 22.5118 20.5314L22.394 20.4627L22.3156 20.6001ZM21.6163 21.3928C21.5634 21.4871 21.4929 21.6155 21.4595 21.678C21.4261 21.7405 21.3506 21.8774 21.2917 21.9822C21.2328 22.087 21.1341 22.2636 21.0724 22.3746C21.0107 22.4856 20.9038 22.6774 20.8349 22.8007C20.7659 22.924 20.7057 23.0351 20.7011 23.0474C20.6964 23.0597 20.6364 23.1686 20.5677 23.2892C20.4991 23.4099 20.4429 23.5135 20.4429 23.5193C20.4429 23.5252 20.3942 23.6116 20.3347 23.7114C20.2753 23.8111 20.2201 23.9097 20.2121 23.9304C20.2041 23.9511 20.1438 24.0636 20.078 24.1804C20.0123 24.2973 19.9019 24.4935 19.8327 24.6164C19.7635 24.7393 19.7032 24.8503 19.6987 24.8631C19.6943 24.8758 19.6503 24.9569 19.601 25.0432C19.4507 25.3062 19.2119 25.737 19.2031 25.7609C19.1959 25.7806 19.0793 25.991 18.8837 26.3377L18.8239 26.4436L18.9347 26.513C19.2896 26.7352 19.5114 26.8709 19.5197 26.8709C19.5249 26.8709 19.6363 26.9378 19.7673 27.0195C20.0402 27.1899 20.297 27.3477 20.6029 27.5331C20.7202 27.6042 20.9101 27.7214 21.0247 27.7936C21.1394 27.8658 21.238 27.9248 21.2438 27.9248C21.2497 27.9248 21.3479 27.984 21.462 28.0563C21.5762 28.1285 21.732 28.2251 21.8083 28.2708C21.8845 28.3166 21.9805 28.3748 22.0216 28.4003C22.3381 28.5965 22.5109 28.7023 22.5656 28.7334C22.6008 28.7534 22.7496 28.8439 22.8963 28.9344C23.3956 29.2426 23.6748 29.4124 23.804 29.4863L23.933 29.56L24.0583 29.3311C24.1931 29.0849 24.3031 28.8875 24.5257 28.493C24.6034 28.3552 24.667 28.2374 24.667 28.2311C24.667 28.2248 24.7129 28.1407 24.7689 28.0442C24.825 27.9477 24.9262 27.7679 24.994 27.6445C25.0617 27.5212 25.1257 27.4051 25.1362 27.3866C25.1467 27.3681 25.2104 27.2521 25.2777 27.1288C25.3853 26.9316 25.6387 26.4714 25.6914 26.3775C25.724 26.3194 25.9773 25.8624 26.1389 25.5702C26.2241 25.416 26.3363 25.2107 26.3882 25.1138C26.44 25.017 26.5204 24.8747 26.5668 24.7975C26.6132 24.7203 26.6511 24.6513 26.6511 24.6441C26.6511 24.6368 26.6908 24.5644 26.7393 24.4831C26.7877 24.4018 26.8237 24.3315 26.8193 24.3269C26.809 24.3165 26.4736 24.1106 26.2884 24.0012C26.2121 23.9561 26.084 23.877 26.0036 23.8253C25.9231 23.7736 25.8527 23.7314 25.8471 23.7314C25.8414 23.7314 25.7296 23.6644 25.5986 23.5827C25.3251 23.412 25.0678 23.2539 24.763 23.0692C24.6457 22.9981 24.4729 22.8918 24.379 22.8331C24.2851 22.7743 24.1507 22.6937 24.0803 22.6538C24.0099 22.614 23.9379 22.5692 23.9203 22.5544C23.9027 22.5395 23.8307 22.494 23.7603 22.4533C23.6899 22.4126 23.5555 22.3317 23.4616 22.2737C23.0603 22.0255 22.8603 21.9029 22.8003 21.8684C22.7651 21.8481 22.6163 21.7576 22.4696 21.6672C22.0456 21.406 21.7345 21.2199 21.7229 21.2206C21.7171 21.221 21.6691 21.2985 21.6163 21.3928ZM26.0791 26.3389C26.0672 26.3539 25.991 26.4874 25.9097 26.6354C25.5912 27.2153 25.5125 27.3559 25.464 27.4311C25.4363 27.474 25.4137 27.5174 25.4137 27.5275C25.4137 27.5375 25.382 27.5983 25.3432 27.6624C25.3044 27.7266 25.2656 27.7913 25.2571 27.8063C25.247 27.8239 25.2735 27.8506 25.333 27.8824C25.3832 27.9093 25.5156 27.989 25.6271 28.0596C25.7385 28.1303 25.8393 28.1919 25.8511 28.1966C25.8746 28.206 26.2245 28.4227 26.4271 28.5533C26.4975 28.5987 26.6223 28.674 26.7044 28.7208C26.7866 28.7675 26.8682 28.8178 26.8858 28.8324C26.9034 28.8471 26.9658 28.8874 27.0244 28.922C27.1794 29.0133 27.5103 29.2151 27.7071 29.3384C27.801 29.3972 27.9162 29.4677 27.9631 29.4951C28.0101 29.5225 28.1253 29.5927 28.2191 29.6511C28.313 29.7095 28.4858 29.8159 28.6031 29.8874C28.7205 29.959 28.9173 30.0801 29.0405 30.1566C29.1637 30.2331 29.3605 30.3542 29.4778 30.4256C29.5952 30.4971 29.7968 30.6207 29.9259 30.7004C30.0549 30.7801 30.2517 30.9012 30.3632 30.9696C30.4747 31.038 30.6509 31.1478 30.7547 31.2137C30.8586 31.2796 30.9484 31.3335 30.9543 31.3335C30.9602 31.3335 31.0721 31.4003 31.2028 31.4821C31.3336 31.5638 31.5318 31.6867 31.6432 31.7551C31.7547 31.8235 31.9371 31.9368 32.0486 32.007C32.1601 32.0771 32.2612 32.1385 32.2733 32.1433C32.2854 32.1481 32.391 32.2115 32.508 32.2842C32.6249 32.3568 32.8118 32.4721 32.9233 32.5404C33.0348 32.6086 33.2182 32.7232 33.3309 32.7951C33.4435 32.8669 33.541 32.9256 33.5474 32.9256C33.5537 32.9256 33.6227 32.9664 33.7006 33.0161C33.7786 33.0659 33.8499 33.1017 33.8592 33.0957C33.8685 33.0896 33.9223 33.001 33.9788 32.8986C34.0352 32.7963 34.1363 32.6167 34.2034 32.4996C34.2705 32.3824 34.3291 32.2764 34.3337 32.2641C34.3383 32.2518 34.39 32.1577 34.4487 32.055C34.5873 31.8123 34.6917 31.6175 34.693 31.5991C34.6936 31.5911 34.6052 31.5292 34.4967 31.4616C34.088 31.2069 33.5503 30.8762 33.4886 30.8415C33.4534 30.8217 33.343 30.7544 33.2433 30.6919C33.1436 30.6295 32.9324 30.4996 32.774 30.4032C32.6155 30.3069 32.4179 30.1841 32.3348 30.1304C32.2517 30.0767 32.1783 30.0328 32.1717 30.0328C32.165 30.0328 32.0746 29.9789 31.9708 29.9131C31.7923 29.7999 31.5053 29.6225 31.0459 29.3414C30.7085 29.1349 30.5133 29.015 30.2672 28.863C30.1381 28.7833 29.9269 28.654 29.7979 28.5758C29.6688 28.4977 29.496 28.3909 29.4138 28.3385C29.3317 28.2862 29.218 28.2163 29.161 28.1831C29.1041 28.1499 29.0129 28.0937 28.9584 28.0581C28.9038 28.0226 28.8208 27.9717 28.7738 27.945C28.6739 27.8881 28.4112 27.7263 28.1173 27.5407C28.0026 27.4683 27.9044 27.4091 27.899 27.4091C27.8936 27.4091 27.8242 27.3672 27.7448 27.3159C27.6238 27.2378 27.2196 26.9891 27.0671 26.8988C27.0119 26.8661 26.6488 26.6414 26.4164 26.4961C26.1398 26.3232 26.1044 26.3067 26.0791 26.3389ZM18.8556 26.9552C18.6578 27.3147 18.6239 27.3915 18.6541 27.4125C18.7557 27.483 19.4803 27.9248 19.4944 27.9248C19.5035 27.9248 19.6064 27.9874 20.1159 28.3025C20.2587 28.3908 20.3807 28.463 20.387 28.463C20.3934 28.463 20.4865 28.5186 20.5941 28.5864C20.7017 28.6542 20.7957 28.7098 20.803 28.7098C20.8103 28.7099 20.9108 28.7704 21.0264 28.8444C21.1419 28.9183 21.2415 28.9788 21.2476 28.9788C21.2537 28.9788 21.3127 29.0133 21.3788 29.0554C21.4449 29.0976 21.5997 29.1916 21.7229 29.2644C21.8461 29.3372 22.0861 29.4808 22.2563 29.5835C22.4264 29.6861 22.7 29.8506 22.8643 29.949C23.0286 30.0475 23.1819 30.1419 23.2051 30.1589C23.282 30.2154 23.2876 30.2099 23.4299 29.9319C23.4615 29.8702 23.5139 29.7713 23.5463 29.7121C23.5787 29.6529 23.6017 29.6008 23.5974 29.5964C23.5866 29.5852 23.1859 29.3435 23.0563 29.27C22.9976 29.2367 22.8612 29.1551 22.7531 29.0886C22.645 29.022 22.4548 28.9071 22.3305 28.8331C22.2062 28.7591 22.0182 28.6455 21.9128 28.5808C21.8074 28.516 21.7176 28.463 21.7133 28.463C21.7091 28.463 21.6085 28.4025 21.49 28.3285C21.3714 28.2545 21.2688 28.1939 21.2621 28.1939C21.2553 28.1939 21.1555 28.1334 21.0402 28.0594C20.925 27.9854 20.8244 27.9248 20.8167 27.9248C20.8089 27.9248 20.729 27.8779 20.639 27.8205C20.5491 27.7631 20.4369 27.6943 20.3898 27.6677C20.3427 27.641 20.2226 27.5701 20.1229 27.5101C19.75 27.2858 19.553 27.1667 19.3975 27.0717C19.2483 26.9805 18.9466 26.8033 18.9412 26.8038C18.9399 26.8039 18.9014 26.872 18.8556 26.9552ZM18.0646 27.5476C17.8061 27.6517 17.6221 27.9643 17.6181 28.3061C17.6164 28.4463 17.625 28.4909 17.6695 28.5742C17.7168 28.6629 17.7697 28.7042 18.1388 28.9402C18.3676 29.0866 18.5836 29.2212 18.6188 29.2394C18.654 29.2576 18.75 29.3173 18.8322 29.372C18.9143 29.4267 19.0026 29.4813 19.0285 29.4933C19.0543 29.5053 19.1138 29.5406 19.1607 29.5717C19.2441 29.627 19.6523 29.8782 20.1015 30.1506C20.2247 30.2253 20.4158 30.342 20.5263 30.41C20.6366 30.478 20.7662 30.5553 20.8143 30.5819C20.8623 30.6085 20.9688 30.6708 21.0509 30.7205C21.133 30.7702 21.2962 30.8664 21.4136 30.9344C21.5309 31.0024 21.7229 31.1136 21.8403 31.1816C22.2884 31.4413 22.5616 31.5435 22.811 31.5446C22.9356 31.5452 22.9933 31.5339 23.0718 31.4937C23.331 31.361 23.4174 31.0243 23.2753 30.7003C23.2155 30.5637 23.0559 30.3798 22.9496 30.3249C22.9144 30.3068 22.7944 30.2355 22.683 30.1666C22.5715 30.0977 22.3843 29.9824 22.2669 29.9105C22.1496 29.8385 21.9528 29.7172 21.8296 29.6409C21.7064 29.5645 21.5096 29.443 21.3922 29.3708C21.2749 29.2985 21.0855 29.1808 20.9714 29.1091C20.8572 29.0375 20.7595 28.9788 20.7542 28.9788C20.749 28.9788 20.6648 28.9273 20.5671 28.8643C20.4695 28.8012 20.3463 28.7255 20.2935 28.6959C20.2407 28.6663 20.1366 28.6018 20.0621 28.5525C19.9875 28.5033 19.9225 28.463 19.9176 28.463C19.9126 28.463 19.8152 28.4044 19.7011 28.3327C19.5869 28.2611 19.3975 28.1436 19.2802 28.0718C19.1628 27.9999 18.9948 27.8953 18.9068 27.8392C18.5514 27.6126 18.3956 27.5384 18.2581 27.5299C18.1866 27.5256 18.0995 27.5335 18.0646 27.5476ZM35.1944 31.4063C35.1269 31.5328 35.0202 31.7301 34.9575 31.8449C34.8947 31.9597 34.8434 32.0588 34.8434 32.0652C34.8434 32.0716 34.8048 32.1463 34.7576 32.2312C34.6493 32.4262 34.406 32.8793 34.3307 33.0266C34.1916 33.2982 33.9628 33.7236 33.9452 33.743C33.9346 33.7548 33.926 33.7708 33.926 33.7788C33.926 33.7927 34.2125 33.9796 34.2339 33.9796C34.2396 33.9796 34.3621 34.0505 34.506 34.1372L34.7676 34.2948L34.805 34.2437C34.8256 34.2156 34.8426 34.1852 34.8429 34.1761C34.8431 34.167 34.9073 34.0408 34.9855 33.8958C35.2481 33.4087 35.2839 33.3416 35.4386 33.049C35.6356 32.6762 35.6275 32.6914 35.7137 32.5332C35.754 32.4592 35.8184 32.3381 35.857 32.2641C35.8955 32.1901 35.9808 32.0286 36.0466 31.9053C36.1123 31.782 36.1661 31.6744 36.1661 31.6662C36.1661 31.658 36.0965 31.6114 36.0114 31.5627C35.9263 31.514 35.7435 31.4072 35.6052 31.3253C35.4669 31.2435 35.3455 31.1765 35.3354 31.1765C35.3254 31.1765 35.2619 31.2799 35.1944 31.4063ZM36.1963 32.4942C36.085 32.6955 35.9062 33.0214 35.7012 33.3966C35.6372 33.5137 35.5284 33.7095 35.4594 33.8315C35.3905 33.9536 35.334 34.0667 35.334 34.0829C35.334 34.099 35.3796 34.1396 35.4354 34.1729C35.5418 34.2365 35.7768 34.3789 36.1341 34.5961C36.2514 34.6674 36.3858 34.7482 36.4327 34.7756C36.6355 34.8939 37.0801 35.1645 37.163 35.2199C37.2126 35.2531 37.2586 35.2803 37.2651 35.2803C37.2716 35.2803 37.3722 35.3408 37.4888 35.4148C37.6053 35.4888 37.7066 35.5494 37.7137 35.5494C37.7209 35.5494 37.8205 35.6099 37.9351 35.6839C38.0496 35.7579 38.1491 35.8185 38.1562 35.8185C38.1632 35.8185 38.2557 35.874 38.3616 35.9418C38.4675 36.0097 38.5595 36.0652 38.566 36.0652C38.5724 36.0652 38.6726 36.1257 38.7884 36.1997C38.9043 36.2737 39.0042 36.3343 39.0104 36.3343C39.0166 36.3343 39.1016 36.3861 39.1993 36.4494C39.2969 36.5127 39.4008 36.5758 39.4302 36.5895C39.4595 36.6033 39.5747 36.6713 39.6862 36.7405C39.7977 36.8097 39.9801 36.9216 40.0915 36.989C40.203 37.0565 40.3998 37.1756 40.5289 37.2537C40.6579 37.3318 40.85 37.4483 40.9556 37.5125C41.0612 37.5768 41.2868 37.713 41.4569 37.8153C41.627 37.9176 41.8863 38.0737 42.0329 38.1622C42.1796 38.2508 42.3933 38.3796 42.5078 38.4485L42.716 38.5737L42.7503 38.5024C42.7692 38.4631 42.8348 38.3402 42.8962 38.2292C42.9575 38.1182 43.0683 37.9164 43.1423 37.7807C43.3225 37.4504 43.477 37.1683 43.5969 36.951C43.7096 36.7467 43.7134 36.7598 43.51 36.6468C43.4559 36.6167 43.3128 36.5316 43.1918 36.4576C43.0708 36.3836 42.8734 36.2636 42.7531 36.191C42.6327 36.1184 42.4479 36.006 42.3423 35.9414C42.2367 35.8767 42.0111 35.7402 41.8409 35.6379C41.3353 35.3341 40.9017 35.0721 40.5182 34.8385C40.4771 34.8135 40.3283 34.7242 40.1875 34.6401C40.0467 34.556 39.8376 34.4284 39.7228 34.3567C39.6079 34.285 39.5097 34.2263 39.5044 34.2263C39.4991 34.2263 39.4154 34.1772 39.3185 34.1171C38.8875 33.8502 38.6569 33.7105 38.6473 33.7105C38.6416 33.7105 38.5427 33.65 38.4275 33.576C38.3122 33.502 38.2131 33.4414 38.207 33.4414C38.2011 33.4414 38.0874 33.3742 37.9545 33.292C37.4607 32.9868 37.36 32.9256 37.3508 32.9256C37.3456 32.9256 37.2461 32.8651 37.1295 32.7911C37.013 32.7171 36.9127 32.6565 36.9067 32.6565C36.9007 32.6565 36.83 32.6143 36.7496 32.5626C36.6264 32.4834 36.3148 32.2971 36.3071 32.298C36.3058 32.2982 36.256 32.3865 36.1963 32.4942ZM15.8817 36.539C15.7177 36.6243 15.6068 36.8473 15.6353 37.0346C15.6553 37.1661 15.7642 37.323 15.8766 37.3826L15.9718 37.4331H19.7142C22.5288 37.4331 23.4775 37.4265 23.5408 37.4066C23.6423 37.3747 23.7823 37.2169 23.8133 37.0995C23.8745 36.8678 23.773 36.6334 23.5683 36.5338C23.4863 36.4938 23.3374 36.4922 19.7282 36.4918L15.9734 36.4913L15.8817 36.539ZM44.0906 36.8742C44.0604 36.9244 44.0296 36.9825 44.0221 37.0031C44.0146 37.0238 43.9655 37.1163 43.9129 37.2088C43.8604 37.3013 43.7916 37.4275 43.7602 37.4892C43.656 37.6932 43.3938 38.184 43.3769 38.2068C43.3677 38.2191 43.3263 38.2948 43.2849 38.3749C43.2435 38.4551 43.1657 38.6012 43.112 38.6996C43.0583 38.7979 43.0143 38.8918 43.0143 38.9081C43.0143 38.9913 43.251 39.3677 43.4169 39.5485C43.5606 39.7049 43.7626 39.8475 43.9648 39.935C44.1032 39.9949 44.1327 39.9992 44.4117 40C44.6659 40.0007 44.7342 39.993 44.8704 39.9485C45.3752 39.7836 45.8167 39.4146 45.941 39.0536C45.9981 38.8879 46.0193 38.3981 45.9797 38.1627C45.9039 37.7131 45.6627 37.2838 45.3632 37.0657C45.0892 36.8662 44.8023 36.7828 44.3902 36.7828H44.1455L44.0906 36.8742ZM15.0951 37.7684C15.0083 37.7903 14.8555 37.8848 14.7977 37.9523C14.6555 38.1183 14.6833 38.4115 14.8557 38.5643C15.0222 38.7119 14.599 38.7001 19.7495 38.7001C23.6273 38.7001 24.4356 38.6949 24.5035 38.6697C24.6005 38.6337 24.7135 38.5342 24.7701 38.435C24.8989 38.2092 24.7909 37.9301 24.5235 37.798C24.4473 37.7604 24.1963 37.7581 19.8029 37.7548C17.2508 37.7529 15.1323 37.7591 15.0951 37.7684ZM14.425 38.9805C14.2971 39.0035 14.1686 39.0738 14.0752 39.1719C14.0006 39.2504 14 39.2525 14 39.4478C14 39.6376 14.0024 39.6472 14.0659 39.7155C14.1022 39.7545 14.1862 39.8144 14.2526 39.8487L14.3733 39.9111L19.7168 39.9169C25.5458 39.9232 25.1662 39.9312 25.3612 39.7979C25.4982 39.7042 25.5524 39.6031 25.5524 39.4409C25.5524 39.3184 25.5445 39.2934 25.4788 39.2061C25.4287 39.1397 25.3605 39.0862 25.2654 39.0388L25.1257 38.9692L19.8242 38.9661C16.9084 38.9644 14.4787 38.9708 14.425 38.9805Z" fill="white"/>
</svg>
