<svg width="24" height="24" viewBox="0 0 24 24" fill="none" xmlns="http://www.w3.org/2000/svg">
<g clip-path="url(#clip0)">
<path d="M22.2028 9.84395C21.5466 9.35738 20.7403 9.0002 19.8891 8.80754C19.7493 8.7761 19.6213 8.70554 19.5202 8.60412C19.419 8.50269 19.3488 8.37458 19.3177 8.23473C18.952 6.60582 18.165 5.20895 17.0081 4.15051C15.6633 2.91817 13.8848 2.24036 12 2.24036C10.343 2.24036 8.8125 2.75973 7.5764 3.7427C6.73867 4.40994 6.06434 5.25966 5.60484 6.22707C5.55502 6.33292 5.48113 6.42565 5.38908 6.49785C5.29703 6.57004 5.18936 6.6197 5.07469 6.64286C3.82078 6.89598 2.68875 7.43364 1.82437 8.19535C0.630937 9.25004 0 10.6521 0 12.2529C0 13.871 0.679219 15.3466 1.91203 16.4135C3.08953 17.4302 4.67484 17.9903 6.375 17.9903H11.25V10.8011L9.53015 12.521C9.45835 12.5928 9.37272 12.6492 9.27845 12.687C9.18418 12.7247 9.08323 12.7429 8.98172 12.7404C8.88021 12.7379 8.78026 12.7149 8.68792 12.6727C8.59558 12.6304 8.51278 12.5699 8.44453 12.4947C8.17265 12.1961 8.1989 11.7307 8.48437 11.4452L11.4698 8.4602C11.6105 8.31965 11.8012 8.2407 12 8.2407C12.1988 8.2407 12.3895 8.31965 12.5302 8.4602L15.5156 11.4443C15.81 11.7391 15.8269 12.2224 15.5339 12.5182C15.4644 12.5884 15.3817 12.6441 15.2906 12.6823C15.1995 12.7204 15.1017 12.7402 15.0029 12.7405C14.9041 12.7407 14.8063 12.7215 14.715 12.6838C14.6236 12.6461 14.5407 12.5908 14.4708 12.521L12.75 10.8011V17.9903H18.5625C20.0316 17.9903 21.3708 17.5778 22.3336 16.8293C23.4239 15.9808 24 14.7668 24 13.3216C24 11.9182 23.3784 10.7149 22.2028 9.84395Z" fill="#718096"/>
<path d="M11.25 21.0093C11.25 21.2082 11.329 21.399 11.4697 21.5396C11.6103 21.6803 11.8011 21.7593 12 21.7593C12.1989 21.7593 12.3897 21.6803 12.5303 21.5396C12.671 21.399 12.75 21.2082 12.75 21.0093V17.9896H11.25V21.0093Z" fill="#718096"/>
</g>
<defs>
<clipPath id="clip0">
<rect width="24" height="24" fill="white"/>
</clipPath>
</defs>
</svg>
