<svg width="39" height="39" viewBox="0 0 39 39" fill="none" xmlns="http://www.w3.org/2000/svg">
<circle cx="19.5" cy="19.5" r="19.5" fill="#265E78"/>
<path fill-rule="evenodd" clip-rule="evenodd" d="M13.84 10.9368C13.7157 10.9762 13.5986 11.1029 13.5242 11.2783C13.4699 11.4063 13.4606 11.6405 13.5062 11.7342C13.5501 11.8247 13.5596 11.8324 13.851 12.0128C13.9882 12.0978 14.166 12.2093 14.246 12.2607C14.326 12.312 14.3952 12.354 14.3997 12.354C14.4043 12.354 14.4736 12.3963 14.5538 12.4479C14.7363 12.5654 15.0213 12.7417 15.0666 12.765C15.0854 12.7747 15.1715 12.8268 15.258 12.8808C15.3444 12.9348 15.4863 13.022 15.5733 13.0746C15.6602 13.1272 15.8105 13.2188 15.9072 13.2782C16.004 13.3375 16.0883 13.386 16.0948 13.386C16.1012 13.386 16.1355 13.4053 16.171 13.4288C16.2461 13.4787 16.6617 13.7186 16.9378 13.8716C17.1668 13.9985 17.3475 14.0564 17.5202 14.0582C17.6271 14.0593 17.6593 14.0519 17.7447 14.007C17.8305 13.9618 17.851 13.9411 17.8917 13.8583C17.9342 13.7718 17.9384 13.7479 17.9334 13.6222C17.929 13.5096 17.9186 13.4634 17.8803 13.386C17.8033 13.2301 17.7609 13.1917 17.4703 13.0146C17.2436 12.8765 16.7566 12.5766 16.5717 12.4614C16.4847 12.4072 16.3929 12.351 16.3677 12.3366C16.2802 12.2865 15.8139 11.9978 15.5715 11.8435C15.4836 11.7876 15.4076 11.7418 15.4027 11.7418C15.3977 11.7418 15.3273 11.6998 15.2463 11.6485C15.0894 11.5491 14.8332 11.3899 14.5748 11.2312C14.4879 11.1778 14.3531 11.0946 14.2753 11.0462C14.0821 10.9261 13.9657 10.8969 13.84 10.9368ZM13.5062 12.1681C13.4725 12.2271 13.4153 12.3321 13.3791 12.4016L13.3132 12.5279L13.4554 12.6115C13.681 12.7442 13.7087 12.7608 13.8792 12.8663C13.9679 12.9213 14.0438 12.9662 14.048 12.9662C14.0549 12.9662 14.2041 13.0567 14.5853 13.2922C14.6689 13.3438 14.7416 13.386 14.747 13.386C14.7523 13.386 14.8246 13.4293 14.9076 13.4822C14.9907 13.5351 15.0619 13.5784 15.0659 13.5784C15.073 13.5784 15.4068 13.7788 15.5899 13.893C15.6402 13.9244 15.7189 13.9713 15.7646 13.9974C15.8104 14.0234 15.9489 14.1062 16.0725 14.1813C16.3106 14.3261 16.5953 14.4965 16.8098 14.6224C16.8812 14.6644 16.9466 14.6943 16.955 14.6888C16.9634 14.6833 16.9978 14.6261 17.0315 14.5616C17.0651 14.4971 17.1186 14.3985 17.1502 14.3427C17.1818 14.2868 17.2049 14.239 17.2017 14.2365C17.1869 14.2253 16.9037 14.0576 16.8223 14.0118C16.7725 13.9838 16.6639 13.9192 16.581 13.8682C16.2885 13.6885 15.8886 13.4485 15.7526 13.3711C15.7043 13.3436 15.6141 13.2885 15.5522 13.2486C15.4902 13.2088 15.4353 13.1761 15.43 13.1761C15.4248 13.1761 15.347 13.1289 15.2571 13.0712C15.1672 13.0135 15.0889 12.9662 15.0831 12.9662C15.0773 12.9662 14.9977 12.919 14.9063 12.8613C14.8149 12.8036 14.7369 12.7563 14.733 12.7563C14.7292 12.7563 14.6587 12.715 14.5763 12.6645C14.3601 12.5318 13.8441 12.2223 13.6592 12.1145L13.5673 12.0609L13.5062 12.1681ZM12.9607 12.7864C12.9195 12.86 12.8645 12.9601 12.8384 13.0088C12.8124 13.0575 12.7535 13.1643 12.7075 13.2461C12.6616 13.3279 12.5846 13.4656 12.5365 13.5522C12.4883 13.6388 12.405 13.7883 12.3512 13.8845C12.2975 13.9807 12.2505 14.0673 12.2469 14.0769C12.2432 14.0866 12.1964 14.1715 12.1429 14.2656C12.0893 14.3597 12.0455 14.4405 12.0455 14.4451C12.0455 14.4497 12.0075 14.5171 11.9611 14.5949C11.9147 14.6727 11.8717 14.7495 11.8654 14.7657C11.8592 14.7818 11.8122 14.8696 11.7609 14.9607C11.7096 15.0519 11.6235 15.2049 11.5695 15.3008C11.5155 15.3966 11.4685 15.4832 11.465 15.4932C11.4616 15.5031 11.4272 15.5664 11.3888 15.6337C11.2716 15.8388 11.0853 16.1749 11.0784 16.1935C11.0728 16.2088 10.9819 16.373 10.8293 16.6434L10.7827 16.726L10.8691 16.7801C11.1459 16.9534 11.3189 17.0593 11.3254 17.0593C11.3294 17.0593 11.4163 17.1115 11.5185 17.1752C11.7313 17.3081 11.9317 17.4312 12.1703 17.5758C12.2618 17.6312 12.4099 17.7227 12.4993 17.779C12.5887 17.8353 12.6657 17.8814 12.6702 17.8814C12.6748 17.8814 12.7514 17.9275 12.8404 17.9839C12.9294 18.0402 13.051 18.1155 13.1105 18.1512C13.17 18.1869 13.2448 18.2323 13.2769 18.2522C13.5237 18.4052 13.6585 18.4877 13.7012 18.512C13.7287 18.5276 13.8447 18.5982 13.9591 18.6688C14.3486 18.9092 14.5663 19.0416 14.6671 19.0993L14.7677 19.1568L14.8655 18.9782C14.9706 18.7862 15.0565 18.6322 15.2301 18.3245C15.2907 18.2171 15.3403 18.1252 15.3403 18.1202C15.3403 18.1153 15.3761 18.0497 15.4198 17.9745C15.4635 17.8992 15.5425 17.7589 15.5953 17.6627C15.6482 17.5665 15.6981 17.476 15.7063 17.4616C15.7145 17.4471 15.7641 17.3566 15.8166 17.2604C15.9005 17.1066 16.0982 16.7476 16.1393 16.6744C16.1647 16.6291 16.3623 16.2727 16.4883 16.0447C16.5548 15.9245 16.6423 15.7643 16.6828 15.6888C16.7232 15.6132 16.7859 15.5022 16.8221 15.442C16.8583 15.3818 16.8879 15.328 16.8879 15.3223C16.8879 15.3167 16.9188 15.2602 16.9566 15.1968C16.9945 15.1334 17.0225 15.0786 17.019 15.075C17.0111 15.0668 16.7494 14.9063 16.605 14.8209C16.5455 14.7857 16.4455 14.724 16.3828 14.6837C16.3201 14.6434 16.2652 14.6104 16.2607 14.6104C16.2563 14.6104 16.1691 14.5582 16.0669 14.4945C15.8536 14.3613 15.6529 14.238 15.4152 14.0939C15.3237 14.0385 15.1889 13.9556 15.1156 13.9098C15.0424 13.864 14.9376 13.801 14.8827 13.77C14.8278 13.7389 14.7716 13.704 14.7579 13.6924C14.7441 13.6808 14.688 13.6453 14.6331 13.6136C14.5782 13.5818 14.4733 13.5187 14.4001 13.4735C14.087 13.2799 13.931 13.1843 13.8842 13.1573C13.8568 13.1415 13.7407 13.0709 13.6263 13.0004C13.2956 12.7966 13.0529 12.6515 13.0439 12.6521C13.0393 12.6523 13.0019 12.7128 12.9607 12.7864ZM16.4417 16.6443C16.4324 16.6561 16.373 16.7602 16.3096 16.8756C16.0611 17.3279 15.9997 17.4376 15.962 17.4962C15.9404 17.5297 15.9227 17.5636 15.9227 17.5714C15.9227 17.5793 15.898 17.6266 15.8677 17.6767C15.8374 17.7267 15.8072 17.7772 15.8005 17.7889C15.7927 17.8026 15.8134 17.8234 15.8597 17.8482C15.899 17.8692 16.0022 17.9314 16.0891 17.9865C16.1761 18.0416 16.2547 18.0896 16.2639 18.0933C16.2822 18.1007 16.5552 18.2697 16.7131 18.3715C16.7681 18.4069 16.8654 18.4657 16.9295 18.5022C16.9935 18.5386 17.0572 18.5778 17.0709 18.5893C17.0846 18.6007 17.1333 18.6322 17.1791 18.6591C17.3 18.7304 17.5581 18.8878 17.7116 18.9839C17.7848 19.0298 17.8746 19.0848 17.9113 19.1062C17.9479 19.1276 18.0377 19.1823 18.1109 19.2279C18.1842 19.2734 18.319 19.3564 18.4105 19.4122C18.502 19.468 18.6555 19.5625 18.7516 19.6222C18.8477 19.6818 19.0012 19.7762 19.0927 19.832C19.1843 19.8877 19.3415 19.9841 19.4422 20.0463C19.5429 20.1084 19.6964 20.2029 19.7833 20.2563C19.8703 20.3096 20.0077 20.3953 20.0887 20.4467C20.1697 20.4981 20.2398 20.5401 20.2444 20.5401C20.249 20.5401 20.3362 20.5922 20.4382 20.656C20.5402 20.7198 20.6948 20.8156 20.7818 20.8689C20.8687 20.9223 21.011 21.0107 21.0979 21.0654C21.1849 21.1201 21.2637 21.168 21.2732 21.1717C21.2827 21.1755 21.365 21.2249 21.4562 21.2816C21.5475 21.3383 21.6932 21.4283 21.7802 21.4815C21.8671 21.5347 22.0102 21.6241 22.0981 21.6801C22.186 21.7362 22.262 21.782 22.267 21.782C22.2719 21.782 22.3257 21.8138 22.3865 21.8526C22.4473 21.8914 22.503 21.9193 22.5102 21.9146C22.5174 21.9099 22.5594 21.8407 22.6035 21.7609C22.6475 21.6811 22.7264 21.541 22.7787 21.4496C22.831 21.3583 22.8767 21.2756 22.8803 21.266C22.8839 21.2564 22.9242 21.183 22.97 21.1029C23.0781 20.9136 23.1596 20.7617 23.1606 20.7473C23.161 20.741 23.0921 20.6927 23.0074 20.64C22.6887 20.4414 22.2693 20.1834 22.2212 20.1563C22.1937 20.1409 22.1076 20.0884 22.0298 20.0397C21.952 19.991 21.7873 19.8897 21.6637 19.8145C21.5401 19.7394 21.386 19.6436 21.3212 19.6017C21.2563 19.5598 21.1991 19.5256 21.1939 19.5256C21.1887 19.5256 21.1182 19.4835 21.0372 19.4322C20.898 19.3439 20.6742 19.2055 20.3158 18.9862C20.0526 18.8252 19.9004 18.7316 19.7084 18.6131C19.6078 18.5509 19.443 18.4501 19.3423 18.3891C19.2417 18.3282 19.1069 18.2449 19.0428 18.204C18.9787 18.1632 18.89 18.1087 18.8456 18.0828C18.8012 18.0569 18.7301 18.013 18.6875 17.9853C18.645 17.9576 18.5802 17.9179 18.5436 17.8971C18.4657 17.8527 18.2607 17.7265 18.0315 17.5818C17.9421 17.5253 17.8655 17.4791 17.8613 17.4791C17.857 17.4791 17.8029 17.4464 17.741 17.4064C17.6466 17.3455 17.3313 17.1515 17.2124 17.081C17.1693 17.0556 16.8861 16.8803 16.7048 16.767C16.4891 16.6321 16.4615 16.6192 16.4417 16.6443ZM10.8074 17.125C10.6531 17.4055 10.6267 17.4654 10.6502 17.4817C10.7294 17.5367 11.2946 17.8814 11.3057 17.8814C11.3127 17.8814 11.393 17.9301 11.7904 18.1759C11.9018 18.2448 11.997 18.3012 12.0019 18.3012C12.0069 18.3012 12.0795 18.3445 12.1634 18.3974C12.2473 18.4503 12.3206 18.4936 12.3263 18.4936C12.332 18.4937 12.4104 18.5409 12.5006 18.5986C12.5907 18.6563 12.6684 18.7035 12.6731 18.7035C12.6779 18.7035 12.7239 18.7304 12.7755 18.7632C12.827 18.7961 12.9478 18.8694 13.0439 18.9262C13.14 18.983 13.3272 19.095 13.4599 19.1751C13.5926 19.2552 13.806 19.3835 13.9342 19.4602C14.0623 19.537 14.1819 19.6107 14.2 19.6239C14.26 19.668 14.2643 19.6637 14.3754 19.4469C14.4 19.3988 14.4409 19.3216 14.4661 19.2754C14.4914 19.2292 14.5093 19.1886 14.506 19.1852C14.4976 19.1764 14.1851 18.988 14.0839 18.9306C14.0382 18.9046 13.9317 18.8409 13.8474 18.7891C13.7631 18.7372 13.6148 18.6475 13.5178 18.5898C13.4209 18.5321 13.2742 18.4435 13.192 18.393C13.1098 18.3425 13.0398 18.3012 13.0364 18.3012C13.0331 18.3012 12.9547 18.2539 12.8622 18.1962C12.7697 18.1385 12.6897 18.0913 12.6844 18.0913C12.6791 18.0913 12.6013 18.044 12.5114 17.9863C12.4215 17.9286 12.343 17.8814 12.337 17.8814C12.331 17.8814 12.2686 17.8447 12.1985 17.8C12.1283 17.7552 12.0408 17.7016 12.0041 17.6808C11.9674 17.66 11.8737 17.6047 11.7959 17.5579C11.505 17.3829 11.3514 17.29 11.2301 17.2159C11.1137 17.1447 10.8783 17.0066 10.8742 17.0069C10.8731 17.007 10.8431 17.0602 10.8074 17.125ZM10.1904 17.5871C9.98881 17.6683 9.84528 17.9121 9.84214 18.1787C9.84084 18.2881 9.84751 18.3229 9.88219 18.3879C9.9191 18.457 9.96042 18.4892 10.2483 18.6733C10.4268 18.7875 10.5952 18.8925 10.6227 18.9067C10.6502 18.9209 10.725 18.9675 10.7891 19.0101C10.8532 19.0528 10.9221 19.0954 10.9422 19.1048C10.9624 19.1141 11.0088 19.1416 11.0454 19.1659C11.1104 19.209 11.4288 19.405 11.7792 19.6174C11.8753 19.6757 12.0244 19.7667 12.1105 19.8198C12.1966 19.8728 12.2977 19.9331 12.3351 19.9539C12.3726 19.9746 12.4557 20.0232 12.5197 20.062C12.5838 20.1007 12.7111 20.1758 12.8026 20.2288C12.8941 20.2818 13.0439 20.3686 13.1354 20.4216C13.4849 20.6242 13.6981 20.7039 13.8926 20.7048C13.9898 20.7053 14.0348 20.6965 14.096 20.6651C14.2982 20.5615 14.3656 20.2989 14.2548 20.0462C14.2081 19.9397 14.0836 19.7962 14.0007 19.7534C13.9733 19.7392 13.8797 19.6837 13.7927 19.6299C13.7058 19.5762 13.5598 19.4863 13.4682 19.4301C13.3767 19.374 13.2232 19.2794 13.1271 19.2199C13.031 19.1603 12.8775 19.0655 12.786 19.0092C12.6944 18.9528 12.5467 18.861 12.4577 18.8051C12.3686 18.7492 12.2924 18.7035 12.2883 18.7035C12.2842 18.7035 12.2185 18.6633 12.1424 18.6141C12.0662 18.565 11.9702 18.5058 11.929 18.4828C11.8878 18.4597 11.8065 18.4094 11.7484 18.371C11.6903 18.3326 11.6396 18.3012 11.6357 18.3012C11.6319 18.3012 11.5559 18.2554 11.4668 18.1995C11.3778 18.1436 11.2301 18.052 11.1386 17.996C11.047 17.9399 10.916 17.8583 10.8473 17.8145C10.5701 17.6378 10.4486 17.5799 10.3413 17.5733C10.2856 17.5699 10.2177 17.5761 10.1904 17.5871ZM23.5517 20.5969C23.499 20.6955 23.4158 20.8495 23.3668 20.939C23.3179 21.0285 23.2778 21.1059 23.2778 21.1109C23.2778 21.1159 23.2477 21.1741 23.2109 21.2403C23.1264 21.3924 22.9367 21.7458 22.8779 21.8607C22.7695 22.0726 22.591 22.4044 22.5773 22.4196C22.569 22.4287 22.5623 22.4412 22.5623 22.4474C22.5623 22.4583 22.7858 22.6041 22.8024 22.6041C22.8069 22.6041 22.9025 22.6594 23.0147 22.727L23.2188 22.8499L23.2479 22.8101C23.264 22.7882 23.2773 22.7644 23.2775 22.7573C23.2777 22.7502 23.3277 22.6518 23.3887 22.5387C23.5935 22.1587 23.6215 22.1064 23.7421 21.8782C23.8958 21.5874 23.8895 21.5993 23.9567 21.4759C23.9881 21.4182 24.0384 21.3237 24.0685 21.266C24.0985 21.2083 24.1651 21.0823 24.2163 20.9861C24.2676 20.8899 24.3095 20.806 24.3095 20.7996C24.3095 20.7932 24.2553 20.7569 24.1889 20.7189C24.1226 20.6809 23.98 20.5976 23.8721 20.5337C23.7642 20.4699 23.6695 20.4176 23.6617 20.4176C23.6538 20.4176 23.6043 20.4983 23.5517 20.5969ZM24.3332 21.4455C24.2463 21.6025 24.1068 21.8567 23.947 22.1493C23.897 22.2407 23.8122 22.3934 23.7584 22.4886C23.7046 22.5838 23.6606 22.672 23.6606 22.6846C23.6606 22.6972 23.6961 22.7288 23.7396 22.7548C23.8226 22.8045 24.0059 22.9155 24.2846 23.085C24.3761 23.1406 24.4809 23.2036 24.5176 23.225C24.6757 23.3173 25.0225 23.5283 25.0872 23.5715C25.1259 23.5974 25.1617 23.6186 25.1668 23.6186C25.1718 23.6186 25.2504 23.6658 25.3413 23.7236C25.4322 23.7813 25.5111 23.8285 25.5167 23.8285C25.5223 23.8285 25.6 23.8757 25.6894 23.9335C25.7787 23.9912 25.8564 24.0384 25.8618 24.0384C25.8673 24.0384 25.9394 24.0817 26.0221 24.1346C26.1047 24.1875 26.1764 24.2308 26.1815 24.2308C26.1865 24.2308 26.2646 24.278 26.355 24.3358C26.4454 24.3935 26.5233 24.4407 26.5281 24.4407C26.533 24.4407 26.5993 24.4811 26.6755 24.5305C26.7516 24.5799 26.8327 24.6291 26.8556 24.6398C26.8784 24.6506 26.9683 24.7036 27.0552 24.7576C27.1422 24.8116 27.2845 24.8988 27.3714 24.9514C27.4584 25.004 27.6119 25.0969 27.7125 25.1579C27.8132 25.2188 27.963 25.3096 28.0454 25.3598C28.1277 25.4099 28.3037 25.5162 28.4364 25.5959C28.5691 25.6757 28.7713 25.7975 28.8857 25.8665C29.0001 25.9356 29.1668 26.036 29.2561 26.0898L29.4185 26.1875L29.4453 26.1318C29.46 26.1012 29.5112 26.0053 29.559 25.9187C29.6069 25.8322 29.6933 25.6747 29.751 25.5689C29.8915 25.3113 30.0121 25.0913 30.1056 24.9217C30.1935 24.7624 30.1964 24.7726 30.0378 24.6845C29.9957 24.661 29.884 24.5946 29.7896 24.5369C29.6953 24.4792 29.5413 24.3856 29.4474 24.329C29.3535 24.2723 29.2094 24.1847 29.127 24.1343C29.0446 24.0838 28.8686 23.9773 28.7359 23.8976C28.3416 23.6606 28.0033 23.4562 27.7042 23.274C27.6722 23.2545 27.5561 23.1849 27.4463 23.1193C27.3365 23.0536 27.1733 22.9542 27.0838 22.8982C26.9942 22.8423 26.9176 22.7965 26.9134 22.7965C26.9093 22.7965 26.8441 22.7582 26.7684 22.7113C26.4323 22.5031 26.2524 22.3942 26.2449 22.3942C26.2405 22.3942 26.1633 22.347 26.0734 22.2892C25.9836 22.2315 25.9062 22.1843 25.9015 22.1843C25.8968 22.1843 25.8082 22.1319 25.7045 22.0678C25.3194 21.8297 25.2408 21.782 25.2336 21.782C25.2296 21.782 25.152 21.7348 25.0611 21.677C24.9701 21.6193 24.8919 21.5721 24.8873 21.5721C24.8826 21.5721 24.8274 21.5391 24.7647 21.4988C24.6686 21.4371 24.4256 21.2918 24.4196 21.2924C24.4185 21.2926 24.3797 21.3614 24.3332 21.4455ZM8.48778 24.6004C8.35983 24.6669 8.27335 24.8409 8.29557 24.987C8.31116 25.0895 8.39606 25.2119 8.48376 25.2584L8.55801 25.2978H11.4771C13.6725 25.2978 14.4125 25.2927 14.4618 25.2772C14.541 25.2522 14.6502 25.1291 14.6744 25.0376C14.7221 24.8568 14.643 24.674 14.4833 24.5963C14.4193 24.5652 14.3032 24.5639 11.488 24.5636L8.55927 24.5632L8.48778 24.6004ZM30.4907 24.8618C30.4672 24.9011 30.4431 24.9463 30.4372 24.9624C30.4314 24.9785 30.3931 25.0507 30.3521 25.1229C30.3111 25.195 30.2575 25.2934 30.2329 25.3415C30.1517 25.5007 29.9472 25.8835 29.934 25.9013C29.9268 25.9109 29.8945 25.9699 29.8623 26.0324C29.83 26.095 29.7693 26.2089 29.7274 26.2856C29.6855 26.3624 29.6512 26.4356 29.6512 26.4483C29.6512 26.5132 29.8358 26.8068 29.9652 26.9478C30.0773 27.0698 30.2349 27.181 30.3926 27.2493C30.5005 27.296 30.5235 27.2994 30.7411 27.2999C30.9394 27.3005 30.9927 27.2945 31.0989 27.2598C31.4927 27.1312 31.837 26.8434 31.934 26.5618C31.9785 26.4326 31.9951 26.0505 31.9642 25.8669C31.9051 25.5162 31.7169 25.1814 31.4833 25.0112C31.2696 24.8556 31.0458 24.7905 30.7243 24.7905H30.5335L30.4907 24.8618ZM7.87421 25.5594C7.8065 25.5764 7.68731 25.6501 7.64219 25.7028C7.53133 25.8322 7.55302 26.061 7.68744 26.1801C7.81732 26.2952 7.48724 26.2861 11.5046 26.2861C14.5293 26.2861 15.1598 26.282 15.2128 26.2624C15.2884 26.2342 15.3766 26.1567 15.4207 26.0793C15.5212 25.9032 15.4369 25.6855 15.2283 25.5824C15.1689 25.5531 14.9731 25.5513 11.5462 25.5487C9.55562 25.5473 7.9032 25.5521 7.87421 25.5594ZM7.3515 26.5048C7.25179 26.5227 7.15151 26.5776 7.07871 26.6541C7.02047 26.7153 7.02002 26.717 7.02002 26.8693C7.02002 27.0173 7.02188 27.0248 7.07144 27.0781C7.09971 27.1085 7.16522 27.1552 7.21704 27.182L7.31123 27.2306L11.4791 27.2351C16.0258 27.24 15.7296 27.2463 15.8818 27.1423C15.9886 27.0693 16.0309 26.9904 16.0309 26.8639C16.0309 26.7683 16.0248 26.7488 15.9735 26.6807C15.9344 26.6289 15.8812 26.5872 15.8071 26.5503L15.6981 26.496L11.5629 26.4935C9.28854 26.4922 7.39342 26.4972 7.3515 26.5048Z" fill="#DEE9EE"/>
</svg>
