<svg width="24" height="24" viewBox="0 0 24 24" fill="none" xmlns="http://www.w3.org/2000/svg">
<path d="M19.0781 5.99951H8.67187C7.19624 5.99951 6 7.19575 6 8.67139V19.0776C6 20.5533 7.19624 21.7495 8.67187 21.7495H19.0781C20.5538 21.7495 21.75 20.5533 21.75 19.0776V8.67139C21.75 7.19575 20.5538 5.99951 19.0781 5.99951Z" stroke="#718096" stroke-width="1.5" stroke-linejoin="round"/>
<path d="M17.9766 5.99927L18 4.87427C17.998 4.17868 17.7208 3.51215 17.229 3.0203C16.7371 2.52844 16.0706 2.25125 15.375 2.24927H5.25C4.45507 2.25162 3.69338 2.56844 3.13127 3.13054C2.56917 3.69264 2.25235 4.45434 2.25 5.24927V15.3743C2.25198 16.0698 2.52918 16.7364 3.02103 17.2282C3.51288 17.7201 4.17941 17.9973 4.875 17.9993H6" stroke="#718096" stroke-width="1.5" stroke-linecap="round" stroke-linejoin="round"/>
<path d="M13.875 10.1238V17.6238" stroke="#718096" stroke-width="1.5" stroke-linecap="round" stroke-linejoin="round"/>
<path d="M17.625 13.874H10.125" stroke="#718096" stroke-width="1.5" stroke-linecap="round" stroke-linejoin="round"/>
</svg>
