<svg width="128" height="128" viewBox="0 0 128 128" fill="none" xmlns="http://www.w3.org/2000/svg">
<path d="M26.6665 32H27.2465H62.0669H62.6665C65.9673 32 68.6665 29.2998 68.6665 26V22C68.6665 18.7002 65.9673 16 62.6665 16H26.6665C23.3657 16 20.6665 18.7002 20.6665 22V26C20.6665 29.2998 23.3657 32 26.6665 32Z" fill="#718096"/>
<path d="M26.6665 88H62.6665C65.9673 88 68.6665 85.2998 68.6665 82V78C68.6665 74.7002 65.9673 72 62.6665 72H62.0865H27.2465H26.6665C23.3657 72 20.6665 74.7002 20.6665 78V82C20.6665 85.2998 23.3657 88 26.6665 88Z" fill="#718096"/>
<path d="M119.667 45.06C117.747 43.2802 115.167 42.3398 112.587 42.52L58.5866 45.5C58.9674 42.52 59.6472 39.44 60.7058 36H28.606C32.026 47.2402 32.026 56.6796 28.5864 68H60.727C59.686 64.56 58.9672 61.2998 58.5864 58.2002L112.567 61.52C112.786 61.52 112.987 61.54 113.186 61.54C115.567 61.54 117.907 60.62 119.667 58.98C121.567 57.1796 122.667 54.6602 122.667 52C122.667 49.3798 121.567 46.8598 119.667 45.06Z" fill="#718096"/>
<path d="M68.6665 106H72.6665V100C72.6665 97.7998 70.8657 96 68.6665 96H20.6665C18.4673 96 16.6665 97.7998 16.6665 100V106H20.6665H68.6665Z" fill="#718096"/>
<path d="M74.6665 110H14.6665C12.4575 110 10.6665 111.791 10.6665 114V118C10.6665 119.1 11.5669 120 12.6665 120H76.6665C77.7661 120 78.6665 119.1 78.6665 118V114C78.6665 111.791 76.8755 110 74.6665 110Z" fill="#718096"/>
</svg>
