<svg width="24" height="24" viewBox="0 0 24 24" fill="none" xmlns="http://www.w3.org/2000/svg">
<path d="M15.5924 3.02621C14.6802 2.04137 13.4061 1.49902 11.9999 1.49902C10.5861 1.49902 9.30784 2.03809 8.39988 3.01683C7.48206 4.00637 7.03488 5.35121 7.13988 6.8034C7.348 9.66839 9.52816 11.999 11.9999 11.999C14.4716 11.999 16.648 9.66886 16.8594 6.80433C16.9658 5.36527 16.5158 4.02324 15.5924 3.02621Z" fill="#718096"/>
<path d="M20.2499 22.498H3.74992C3.53395 22.5009 3.32007 22.4555 3.12384 22.3652C2.92761 22.275 2.75396 22.1421 2.61554 21.9763C2.31085 21.6121 2.18804 21.1148 2.27898 20.6118C2.6746 18.4171 3.90929 16.5735 5.84991 15.2793C7.57398 14.1304 9.75788 13.498 11.9999 13.498C14.2419 13.498 16.4258 14.1309 18.1499 15.2793C20.0905 16.573 21.3252 18.4166 21.7208 20.6113C21.8118 21.1143 21.689 21.6116 21.3843 21.9759C21.2459 22.1417 21.0723 22.2747 20.876 22.365C20.6798 22.4553 20.4659 22.5008 20.2499 22.498Z" fill="#718096"/>
</svg>